<svg width="25" height="25" viewBox="0 0 25 25" fill="none" xmlns="http://www.w3.org/2000/svg">
<path d="M17.7083 21.875V19.7917C17.7083 18.6866 17.2693 17.6268 16.4879 16.8454C15.7065 16.064 14.6467 15.625 13.5417 15.625H5.20832C4.10325 15.625 3.04345 16.064 2.26204 16.8454C1.48064 17.6268 1.04166 18.6866 1.04166 19.7917V21.875" stroke="#232323" stroke-width="2" stroke-linecap="round" stroke-linejoin="round"/>
<path d="M9.37501 11.4583C11.6762 11.4583 13.5417 9.59285 13.5417 7.29167C13.5417 4.99048 11.6762 3.125 9.37501 3.125C7.07382 3.125 5.20834 4.99048 5.20834 7.29167C5.20834 9.59285 7.07382 11.4583 9.37501 11.4583Z" stroke="#232323" stroke-width="2" stroke-linecap="round" stroke-linejoin="round"/>
<path d="M23.9583 21.8748V19.7915C23.9577 18.8683 23.6504 17.9715 23.0848 17.2418C22.5192 16.5122 21.7272 15.9911 20.8333 15.7603" stroke="#232323" stroke-width="2" stroke-linecap="round" stroke-linejoin="round"/>
<path d="M16.6667 3.26025C17.5629 3.48973 18.3573 4.01098 18.9246 4.74183C19.4919 5.47267 19.7998 6.37154 19.7998 7.29671C19.7998 8.22189 19.4919 9.12075 18.9246 9.8516C18.3573 10.5824 17.5629 11.1037 16.6667 11.3332" stroke="#232323" stroke-width="2" stroke-linecap="round" stroke-linejoin="round"/>
</svg>
