<svg width="18" height="19" viewBox="0 0 18 19" fill="none" xmlns="http://www.w3.org/2000/svg">
<path d="M2.65834 14.8995V18.2105L3.99032 17.4113L8.17704 14.8995H12.3295C13.2992 14.8995 14.0879 14.1108 14.0879 13.1411V6.10751C14.0879 5.13776 13.2992 4.34912 12.3295 4.34912H1.77914C0.809389 4.34912 0.020752 5.13776 0.020752 6.10751V13.1411C0.020752 14.1108 0.809389 14.8995 1.77914 14.8995H2.65834ZM1.77914 6.10751H12.3295V13.1411H7.68997L4.41673 15.1052V13.1411H1.77914V6.10751Z" fill="#777777"/>
<path d="M15.8462 0.832275H5.29586C4.32611 0.832275 3.53748 1.62091 3.53748 2.59066H14.0878C15.0576 2.59066 15.8462 3.3793 15.8462 4.34905V11.3826C16.816 11.3826 17.6046 10.594 17.6046 9.62422V2.59066C17.6046 1.62091 16.816 0.832275 15.8462 0.832275Z" fill="#777777"/>
</svg>
