<svg width="21" height="15" viewBox="0 0 21 15" fill="none" xmlns="http://www.w3.org/2000/svg">
<path d="M9.16716 14.3266H2.28956V10.252C1.155 9.20597 0.51062 7.74356 0.51062 6.18959C0.51062 3.14084 2.99105 0.660645 6.03957 0.660645C8.52855 0.660645 10.7225 2.33715 11.3745 4.73782L11.3949 4.81181L11.436 5.71838L13.1047 8.05824L11.6379 9.12366V9.93844C11.6379 10.9197 10.8395 11.7183 9.85755 11.7183H9.16739L9.16716 14.3266ZM3.67682 12.9393H7.77989V10.3315H9.85732C10.0742 10.3315 10.2504 10.1551 10.2504 9.93867V8.41731L11.1766 7.74448L10.0682 6.19075L10.0157 5.03099C9.5038 3.27102 7.87908 2.04837 6.03934 2.04837C3.75567 2.04837 1.89765 3.90638 1.89765 6.19005C1.89765 7.43859 2.45302 8.60806 3.42157 9.39857L3.67659 9.60666L3.67682 12.9393Z" fill="#777777"/>
<path d="M14.6495 10.5549L13.6687 9.57405C14.2944 8.94817 14.2944 7.92991 13.6685 7.30379L14.6498 6.323C15.8162 7.48969 15.8162 9.38839 14.6495 10.5549Z" fill="#777777"/>
<path d="M16.5223 12.0322L15.5415 11.0514C16.9817 9.61122 16.9817 7.26743 15.5415 5.82699L16.5223 4.84619C18.5031 6.82744 18.5031 10.0512 16.5223 12.0322Z" fill="#777777"/>
<path d="M18.6735 13.4171L17.6923 12.4363C19.8959 10.2322 19.8959 6.64613 17.6927 4.44222L18.6735 3.46143C21.4185 6.20567 21.4185 10.672 18.6735 13.4171Z" fill="#777777"/>
</svg>
