<svg width="20" height="15" viewBox="0 0 20 15" fill="none" xmlns="http://www.w3.org/2000/svg">
<path d="M17.7185 6.71148C18.1304 7.25659 18.1304 7.99247 17.7185 8.53669C16.4212 10.2502 13.3089 13.7785 9.67517 13.7785C6.04147 13.7785 2.9291 10.2502 1.63185 8.53669C1.43147 8.27569 1.32269 7.95459 1.32269 7.62409C1.32269 7.29358 1.43147 6.97249 1.63185 6.71148C2.9291 4.99793 6.04147 1.46973 9.67517 1.46973C13.3089 1.46973 16.4212 4.99793 17.7185 6.71148V6.71148Z" stroke="#777777" stroke-width="2" stroke-linecap="round" stroke-linejoin="round"/>
<path d="M9.67509 10.2617C11.1147 10.2617 12.2818 9.08085 12.2818 7.62416C12.2818 6.16746 11.1147 4.98657 9.67509 4.98657C8.23547 4.98657 7.06842 6.16746 7.06842 7.62416C7.06842 9.08085 8.23547 10.2617 9.67509 10.2617Z" stroke="#777777" stroke-width="2" stroke-linecap="round" stroke-linejoin="round"/>
</svg>
