<svg width="32" height="27" viewBox="0 0 32 27" fill="none" xmlns="http://www.w3.org/2000/svg">
<path d="M22.1604 13.6742C20.9055 13.1516 19.9358 12.3097 19.2513 11.1484C18.5098 10.0452 18.139 8.70968 18.139 7.14193C18.139 5.05161 18.795 3.33871 20.107 2.00323C21.4189 0.667744 23.0446 0 24.984 0C27.0374 0 28.7201 0.667744 30.0321 2.00323C31.344 3.33871 32 5.05161 32 7.14193C32 8.1871 31.8859 9.20322 31.6578 10.1903C31.3725 11.1774 30.8592 12.6581 30.1176 14.6323L25.5829 27H18.738L22.1604 13.6742ZM4.02139 13.6742C2.76649 13.1516 1.79679 12.3097 1.1123 11.1484C0.370768 10.0452 1.90735e-06 8.70968 1.90735e-06 7.14193C1.90735e-06 5.05161 0.655972 3.33871 1.96791 2.00323C3.27986 0.667744 4.90553 0 6.84492 0C8.8984 0 10.5811 0.667744 11.893 2.00323C13.205 3.33871 13.861 5.05161 13.861 7.14193C13.861 8.1871 13.7469 9.20322 13.5187 10.1903C13.2335 11.1774 12.7201 12.6581 11.9786 14.6323L7.44385 27H0.598934L4.02139 13.6742Z" fill="white"/>
</svg>
