<svg width="32" height="27" viewBox="0 0 32 27" fill="none" xmlns="http://www.w3.org/2000/svg">
<path d="M9.83957 13.3258C11.0945 13.8484 12.0642 14.6903 12.7487 15.8516C13.4902 16.9548 13.861 18.2903 13.861 19.8581C13.861 21.9484 13.205 23.6613 11.893 24.9968C10.5811 26.3323 8.95544 27 7.01604 27C4.96257 27 3.27986 26.3323 1.96791 24.9968C0.655972 23.6613 0 21.9484 0 19.8581C0 18.8129 0.114082 17.7968 0.342246 16.8097C0.627451 15.8226 1.14082 14.3419 1.88235 12.3677L6.41711 0H13.262L9.83957 13.3258ZM27.9786 13.3258C29.2335 13.8484 30.2032 14.6903 30.8877 15.8516C31.6292 16.9548 32 18.2903 32 19.8581C32 21.9484 31.344 23.6613 30.0321 24.9968C28.7201 26.3323 27.0945 27 25.1551 27C23.1016 27 21.4189 26.3323 20.107 24.9968C18.795 23.6613 18.139 21.9484 18.139 19.8581C18.139 18.8129 18.2531 17.7968 18.4813 16.8097C18.7665 15.8226 19.2799 14.3419 20.0214 12.3677L24.5561 0H31.4011L27.9786 13.3258Z" fill="#A7A7A7"/>
</svg>
